<?xml version="1.0" standalone="no"?>
<!DOCTYPE svg PUBLIC "-//W3C//DTD SVG 20010904//EN"
 "http://www.w3.org/TR/2001/REC-SVG-20010904/DTD/svg10.dtd">
<svg version="1.0" xmlns="http://www.w3.org/2000/svg"
 width="300.000000pt" height="300.000000pt" viewBox="0 0 300.000000 300.000000"
 preserveAspectRatio="xMidYMid meet">
<metadata>
Created by potrace 1.10, written by Peter Selinger 2001-2011
</metadata>
<g transform="translate(0.000000,300.000000) scale(0.100000,-0.100000)"
fill="#000000" stroke="none">
<path d="M1604 1676 c-12 -31 0 -50 31 -50 27 0 30 3 30 30 0 24 -4 30 -28 32
-17 2 -29 -2 -33 -12z"/>
<path d="M357 1523 l2 -148 30 -3 31 -3 0 61 0 62 60 -4 60 -3 0 30 0 30 -60
-3 -60 -4 0 36 0 36 70 0 70 0 0 30 0 30 -102 0 -103 0 2 -147z"/>
<path d="M1350 1521 l0 -151 35 0 c35 0 35 0 35 44 l0 43 52 5 c40 4 57 11 75
32 32 38 32 105 -1 143 -23 26 -31 28 -110 32 l-86 3 0 -151z m151 68 c19 -36
-3 -69 -46 -69 -35 0 -35 0 -35 45 0 45 0 45 35 45 25 0 37 -6 46 -21z m-83
-102 c2 -10 -3 -17 -12 -17 -9 0 -16 2 -16 4 0 2 -3 12 -6 21 -5 13 -2 16 12
13 10 -2 20 -11 22 -21z"/>
<path d="M2180 1522 l0 -150 73 3 c116 3 167 45 167 137 0 108 -43 149 -161
156 l-79 5 0 -151z m150 68 c15 -15 20 -33 20 -70 0 -61 -24 -90 -72 -90 l-33
0 -1 90 -1 90 33 0 c21 0 42 -8 54 -20z"/>
<path d="M2450 1522 l0 -151 86 4 c109 5 134 19 134 75 0 28 -7 47 -21 61 -20
20 -20 23 -5 31 24 14 21 80 -5 104 -16 15 -40 20 -105 23 l-84 3 0 -150z
m142 80 c5 -5 8 -18 6 -28 -2 -14 -14 -20 -46 -22 l-42 -3 0 36 c0 36 0 37 36
32 20 -3 41 -10 46 -15z m-87 -77 c0 -16 -6 -30 -12 -32 -9 -3 -13 7 -13 32 0
25 4 35 13 33 6 -3 12 -17 12 -33z m111 13 c0 -13 4 -32 9 -43 5 -13 1 -11
-14 8 -19 22 -21 30 -11 42 16 19 15 19 16 -7z m-16 -53 c6 -8 9 -23 5 -35 -5
-16 -15 -20 -51 -20 -33 0 -44 -4 -44 -16 0 -9 -5 -14 -12 -12 -18 6 -21 28
-4 28 12 0 16 10 16 35 0 34 1 35 39 35 21 0 44 -6 51 -15z"/>
<path d="M609 1572 c-26 -23 -33 -38 -37 -80 -4 -49 -2 -54 31 -87 81 -81 200
-19 184 96 -12 92 -111 131 -178 71z m110 -54 c4 -12 5 -35 1 -52 -5 -27 -10
-31 -40 -31 -33 0 -35 2 -38 39 -5 53 3 66 38 66 22 0 33 -6 39 -22z"/>
<path d="M820 1485 l0 -115 34 0 33 0 -4 69 c-4 77 11 106 53 98 22 -4 33 13
34 51 0 18 -50 15 -72 -4 -16 -16 -18 -16 -24 0 -3 9 -17 16 -30 16 -24 0 -24
0 -24 -115z"/>
<path d="M990 1483 l0 -113 30 0 30 0 0 73 c0 83 8 100 41 95 23 -3 24 -7 27
-85 l3 -83 33 0 33 0 -1 76 c-1 81 11 105 48 91 13 -5 16 -22 16 -87 l0 -80
36 0 36 0 -4 96 c-3 86 -5 98 -27 115 -28 23 -69 24 -99 3 -20 -14 -24 -14
-38 0 -20 20 -63 20 -92 0 -17 -11 -22 -12 -22 -2 0 7 -11 13 -25 13 l-25 0 0
-112z"/>
<path d="M1700 1440 l0 -160 36 0 36 0 -4 55 c-4 51 2 69 17 45 13 -20 72 -11
99 16 22 23 26 35 26 86 0 52 -3 63 -29 89 -33 32 -80 39 -101 14 -10 -12 -15
-13 -21 -4 -4 7 -19 14 -33 16 l-26 4 0 -161z m138 88 c17 -17 15 -73 -2 -88
-8 -6 -25 -10 -38 -8 -19 2 -24 10 -26 42 -2 21 -1 44 2 52 7 17 48 18 64 2z
m-78 -107 c7 -14 5 -23 -10 -36 -20 -18 -20 -17 -20 24 0 43 11 47 30 12z"/>
<path d="M1988 1584 c-37 -20 -48 -43 -48 -104 0 -40 5 -56 24 -75 43 -43 124
-45 162 -4 16 17 16 22 4 29 -20 13 -37 12 -59 -2 -23 -14 -71 3 -71 25 0 11
17 14 75 12 l75 -3 0 29 c0 86 -85 135 -162 93z m88 -51 c17 -17 16 -18 -25
-21 -51 -4 -63 4 -37 24 26 19 41 18 62 -3z m-78 -54 c-17 -27 -30 -28 -34 -5
-5 33 6 47 28 35 17 -9 18 -13 6 -30z"/>
<path d="M1600 1479 l0 -110 33 3 c17 2 31 6 30 11 -2 4 -3 52 -3 107 l0 100
-30 0 -30 0 0 -111z"/>
</g>
</svg>
